<svg width="1440" height="1146" viewBox="0 0 1440 1146" fill="none" xmlns="http://www.w3.org/2000/svg">
<rect width="1440" height="1128.4" transform="matrix(1 0 0 -1 0 1146)" fill="url(#paint0_radial_8966_69819)"/>
<g style="mix-blend-mode:overlay" opacity="0.3">
<line x1="31.5" y1="2.466e-08" x2="31.5" y2="1146" stroke="url(#paint1_linear_8966_69819)"/>
<line x1="62.5" y1="2.466e-08" x2="62.5" y2="1146" stroke="url(#paint2_linear_8966_69819)"/>
<line x1="93.5" y1="2.466e-08" x2="93.5" y2="1146" stroke="url(#paint3_linear_8966_69819)"/>
<line x1="124.5" y1="2.466e-08" x2="124.5" y2="1146" stroke="url(#paint4_linear_8966_69819)"/>
<line x1="155.5" y1="2.466e-08" x2="155.5" y2="1146" stroke="url(#paint5_linear_8966_69819)"/>
<line x1="186.5" y1="2.466e-08" x2="186.5" y2="1146" stroke="url(#paint6_linear_8966_69819)"/>
<line x1="217.5" y1="2.466e-08" x2="217.5" y2="1146" stroke="url(#paint7_linear_8966_69819)"/>
<line x1="248.5" y1="2.466e-08" x2="248.5" y2="1146" stroke="url(#paint8_linear_8966_69819)"/>
<line x1="279.5" y1="2.46484e-08" x2="279.5" y2="1146" stroke="url(#paint9_linear_8966_69819)"/>
<line x1="311.5" y1="2.466e-08" x2="311.5" y2="1146" stroke="url(#paint10_linear_8966_69819)"/>
<line x1="341.5" y1="2.466e-08" x2="341.5" y2="1146" stroke="url(#paint11_linear_8966_69819)"/>
<line x1="373.5" y1="2.466e-08" x2="373.5" y2="1146" stroke="url(#paint12_linear_8966_69819)"/>
<line x1="403.5" y1="2.466e-08" x2="403.5" y2="1146" stroke="url(#paint13_linear_8966_69819)"/>
<line x1="435.5" y1="2.466e-08" x2="435.5" y2="1146" stroke="url(#paint14_linear_8966_69819)"/>
<line x1="465.5" y1="2.466e-08" x2="465.5" y2="1146" stroke="url(#paint15_linear_8966_69819)"/>
<line x1="497.5" y1="2.466e-08" x2="497.5" y2="1146" stroke="url(#paint16_linear_8966_69819)"/>
<line x1="527.5" y1="2.466e-08" x2="527.5" y2="1146" stroke="url(#paint17_linear_8966_69819)"/>
<line x1="559.5" y1="2.466e-08" x2="559.5" y2="1146" stroke="url(#paint18_linear_8966_69819)"/>
<line x1="590.5" y1="2.466e-08" x2="590.5" y2="1146" stroke="url(#paint19_linear_8966_69819)"/>
<line x1="621.5" y1="2.46484e-08" x2="621.5" y2="1146" stroke="url(#paint20_linear_8966_69819)"/>
<line x1="652.5" y1="2.466e-08" x2="652.5" y2="1146" stroke="url(#paint21_linear_8966_69819)"/>
<line x1="683.5" y1="2.466e-08" x2="683.5" y2="1146" stroke="url(#paint22_linear_8966_69819)"/>
<line x1="714.5" y1="2.466e-08" x2="714.5" y2="1146" stroke="url(#paint23_linear_8966_69819)"/>
<line x1="745.5" y1="2.466e-08" x2="745.5" y2="1146" stroke="url(#paint24_linear_8966_69819)"/>
<line x1="776.5" y1="2.466e-08" x2="776.5" y2="1146" stroke="url(#paint25_linear_8966_69819)"/>
<line x1="807.5" y1="2.466e-08" x2="807.5" y2="1146" stroke="url(#paint26_linear_8966_69819)"/>
<line x1="838.5" y1="2.466e-08" x2="838.5" y2="1146" stroke="url(#paint27_linear_8966_69819)"/>
<line x1="869.5" y1="2.466e-08" x2="869.5" y2="1146" stroke="url(#paint28_linear_8966_69819)"/>
<line x1="900.5" y1="2.46484e-08" x2="900.5" y2="1146" stroke="url(#paint29_linear_8966_69819)"/>
<line x1="932.5" y1="2.466e-08" x2="932.5" y2="1146" stroke="url(#paint30_linear_8966_69819)"/>
<line x1="963.5" y1="2.46484e-08" x2="963.5" y2="1146" stroke="url(#paint31_linear_8966_69819)"/>
<line x1="995.5" y1="2.466e-08" x2="995.5" y2="1146" stroke="url(#paint32_linear_8966_69819)"/>
<line x1="1026.5" y1="2.46484e-08" x2="1026.5" y2="1146" stroke="url(#paint33_linear_8966_69819)"/>
<line x1="1058.5" y1="2.466e-08" x2="1058.5" y2="1146" stroke="url(#paint34_linear_8966_69819)"/>
<line x1="1089.5" y1="2.46484e-08" x2="1089.5" y2="1146" stroke="url(#paint35_linear_8966_69819)"/>
<line x1="1121.5" y1="2.466e-08" x2="1121.5" y2="1146" stroke="url(#paint36_linear_8966_69819)"/>
<line x1="1152.5" y1="2.466e-08" x2="1152.5" y2="1146" stroke="url(#paint37_linear_8966_69819)"/>
<line x1="1184.5" y1="2.466e-08" x2="1184.5" y2="1146" stroke="url(#paint38_linear_8966_69819)"/>
<line x1="1215.5" y1="2.466e-08" x2="1215.5" y2="1146" stroke="url(#paint39_linear_8966_69819)"/>
<line x1="1247.5" y1="2.466e-08" x2="1247.5" y2="1146" stroke="url(#paint40_linear_8966_69819)"/>
<line x1="1278.5" y1="2.466e-08" x2="1278.5" y2="1146" stroke="url(#paint41_linear_8966_69819)"/>
<line x1="1310.5" y1="2.466e-08" x2="1310.5" y2="1146" stroke="url(#paint42_linear_8966_69819)"/>
<line x1="1341.5" y1="2.466e-08" x2="1341.5" y2="1146" stroke="url(#paint43_linear_8966_69819)"/>
<line x1="1373.5" y1="2.466e-08" x2="1373.5" y2="1146" stroke="url(#paint44_linear_8966_69819)"/>
<line x1="1404.5" y1="2.466e-08" x2="1404.5" y2="1146" stroke="url(#paint45_linear_8966_69819)"/>
<line x1="1436.5" y1="2.466e-08" x2="1436.5" y2="1146" stroke="url(#paint46_linear_8966_69819)"/>
<line x1="1440" y1="32.2031" x2="-6.80022e-08" y2="32.203" stroke="url(#paint47_linear_8966_69819)"/>
<line x1="1440" y1="64.8398" x2="-6.80022e-08" y2="64.8398" stroke="url(#paint48_linear_8966_69819)"/>
<line x1="1440" y1="96.5391" x2="-6.80022e-08" y2="96.539" stroke="url(#paint49_linear_8966_69819)"/>
<line x1="1440" y1="129.199" x2="-6.80022e-08" y2="129.199" stroke="url(#paint50_linear_8966_69819)"/>
<line x1="1440" y1="160.902" x2="-6.80022e-08" y2="160.902" stroke="url(#paint51_linear_8966_69819)"/>
<line x1="1440" y1="193.543" x2="-6.80022e-08" y2="193.543" stroke="url(#paint52_linear_8966_69819)"/>
<line x1="1440" y1="225.242" x2="-6.80022e-08" y2="225.242" stroke="url(#paint53_linear_8966_69819)"/>
<line x1="1440" y1="257.879" x2="-6.80022e-08" y2="257.879" stroke="url(#paint54_linear_8966_69819)"/>
<line x1="1440" y1="289.602" x2="-6.80022e-08" y2="289.601" stroke="url(#paint55_linear_8966_69819)"/>
<line x1="1440" y1="322.238" x2="-6.80022e-08" y2="322.238" stroke="url(#paint56_linear_8966_69819)"/>
<line x1="1440" y1="353.941" x2="-6.80022e-08" y2="353.941" stroke="url(#paint57_linear_8966_69819)"/>
<line x1="1440" y1="386.578" x2="-6.80022e-08" y2="386.578" stroke="url(#paint58_linear_8966_69819)"/>
<line x1="1440" y1="418.285" x2="-6.80022e-08" y2="418.285" stroke="url(#paint59_linear_8966_69819)"/>
<line x1="1440" y1="450.941" x2="-6.80022e-08" y2="450.941" stroke="url(#paint60_linear_8966_69819)"/>
<line x1="1440" y1="482.645" x2="-6.80022e-08" y2="482.644" stroke="url(#paint61_linear_8966_69819)"/>
<line x1="1440" y1="515.277" x2="-6.80022e-08" y2="515.277" stroke="url(#paint62_linear_8966_69819)"/>
<line x1="1440" y1="546.98" x2="-6.80022e-08" y2="546.98" stroke="url(#paint63_linear_8966_69819)"/>
<line x1="1440" y1="579.613" x2="-6.80022e-08" y2="579.613" stroke="url(#paint64_linear_8966_69819)"/>
<line x1="1440" y1="611.32" x2="-6.80022e-08" y2="611.32" stroke="url(#paint65_linear_8966_69819)"/>
<line x1="1440" y1="643.973" x2="-6.80022e-08" y2="643.973" stroke="url(#paint66_linear_8966_69819)"/>
<line x1="1440" y1="675.684" x2="-6.80022e-08" y2="675.684" stroke="url(#paint67_linear_8966_69819)"/>
<line x1="1440" y1="708.316" x2="-6.80022e-08" y2="708.316" stroke="url(#paint68_linear_8966_69819)"/>
<line x1="1440" y1="740.023" x2="-6.80022e-08" y2="740.023" stroke="url(#paint69_linear_8966_69819)"/>
<line x1="1440" y1="772.656" x2="-6.80022e-08" y2="772.656" stroke="url(#paint70_linear_8966_69819)"/>
<line x1="1440" y1="804.383" x2="-6.80022e-08" y2="804.383" stroke="url(#paint71_linear_8966_69819)"/>
<line x1="1440" y1="837.016" x2="-6.80022e-08" y2="837.016" stroke="url(#paint72_linear_8966_69819)"/>
<line x1="1440" y1="868.719" x2="-6.80022e-08" y2="868.719" stroke="url(#paint73_linear_8966_69819)"/>
<line x1="1440" y1="901.352" x2="-6.80022e-08" y2="901.352" stroke="url(#paint74_linear_8966_69819)"/>
<line x1="1440" y1="933.055" x2="-6.80022e-08" y2="933.055" stroke="url(#paint75_linear_8966_69819)"/>
<line x1="1440" y1="965.711" x2="-6.80022e-08" y2="965.711" stroke="url(#paint76_linear_8966_69819)"/>
<line x1="1440" y1="998.348" x2="-6.80022e-08" y2="998.348" stroke="url(#paint77_linear_8966_69819)"/>
<line x1="1440" y1="1030.98" x2="-6.80022e-08" y2="1030.98" stroke="url(#paint78_linear_8966_69819)"/>
<line x1="1440" y1="1063.61" x2="-6.80022e-08" y2="1063.61" stroke="url(#paint79_linear_8966_69819)"/>
<line x1="1440" y1="1096.27" x2="-6.80022e-08" y2="1096.27" stroke="url(#paint80_linear_8966_69819)"/>
<line x1="1440" y1="1128.9" x2="-6.80022e-08" y2="1128.9" stroke="url(#paint81_linear_8966_69819)"/>
</g>
<rect width="1440" height="1146" transform="matrix(1 0 0 -1 0 1146)" fill="url(#paint82_linear_8966_69819)"/>
<defs>
<radialGradient id="paint0_radial_8966_69819" cx="0" cy="0" r="1" gradientUnits="userSpaceOnUse" gradientTransform="translate(720 -635.18) rotate(90) scale(1224.25 1542.12)">
<stop stop-color="#282F31"/>
<stop offset="0.623227" stop-color="#151632"/>
<stop offset="0.928343" stop-color="#151819"/>
</radialGradient>
<linearGradient id="paint1_linear_8966_69819" x1="31" y1="573" x2="30" y2="573" gradientUnits="userSpaceOnUse">
<stop stop-color="white"/>
<stop offset="1" stop-color="white" stop-opacity="0"/>
</linearGradient>
<linearGradient id="paint2_linear_8966_69819" x1="62" y1="573" x2="61" y2="573" gradientUnits="userSpaceOnUse">
<stop stop-color="white"/>
<stop offset="1" stop-color="white" stop-opacity="0"/>
</linearGradient>
<linearGradient id="paint3_linear_8966_69819" x1="93" y1="573" x2="92" y2="573" gradientUnits="userSpaceOnUse">
<stop stop-color="white"/>
<stop offset="1" stop-color="white" stop-opacity="0"/>
</linearGradient>
<linearGradient id="paint4_linear_8966_69819" x1="124" y1="573" x2="123" y2="573" gradientUnits="userSpaceOnUse">
<stop stop-color="white"/>
<stop offset="1" stop-color="white" stop-opacity="0"/>
</linearGradient>
<linearGradient id="paint5_linear_8966_69819" x1="155" y1="573" x2="154" y2="573" gradientUnits="userSpaceOnUse">
<stop stop-color="white"/>
<stop offset="1" stop-color="white" stop-opacity="0"/>
</linearGradient>
<linearGradient id="paint6_linear_8966_69819" x1="186" y1="573" x2="185" y2="573" gradientUnits="userSpaceOnUse">
<stop stop-color="white"/>
<stop offset="1" stop-color="white" stop-opacity="0"/>
</linearGradient>
<linearGradient id="paint7_linear_8966_69819" x1="217" y1="573" x2="216" y2="573" gradientUnits="userSpaceOnUse">
<stop stop-color="white"/>
<stop offset="1" stop-color="white" stop-opacity="0"/>
</linearGradient>
<linearGradient id="paint8_linear_8966_69819" x1="248" y1="573" x2="247" y2="573" gradientUnits="userSpaceOnUse">
<stop stop-color="white"/>
<stop offset="1" stop-color="white" stop-opacity="0"/>
</linearGradient>
<linearGradient id="paint9_linear_8966_69819" x1="279" y1="573" x2="278" y2="573" gradientUnits="userSpaceOnUse">
<stop stop-color="white"/>
<stop offset="1" stop-color="white" stop-opacity="0"/>
</linearGradient>
<linearGradient id="paint10_linear_8966_69819" x1="311" y1="573" x2="310" y2="573" gradientUnits="userSpaceOnUse">
<stop stop-color="white"/>
<stop offset="1" stop-color="white" stop-opacity="0"/>
</linearGradient>
<linearGradient id="paint11_linear_8966_69819" x1="341" y1="573" x2="340" y2="573" gradientUnits="userSpaceOnUse">
<stop stop-color="white"/>
<stop offset="1" stop-color="white" stop-opacity="0"/>
</linearGradient>
<linearGradient id="paint12_linear_8966_69819" x1="373" y1="573" x2="372" y2="573" gradientUnits="userSpaceOnUse">
<stop stop-color="white"/>
<stop offset="1" stop-color="white" stop-opacity="0"/>
</linearGradient>
<linearGradient id="paint13_linear_8966_69819" x1="403" y1="573" x2="402" y2="573" gradientUnits="userSpaceOnUse">
<stop stop-color="white"/>
<stop offset="1" stop-color="white" stop-opacity="0"/>
</linearGradient>
<linearGradient id="paint14_linear_8966_69819" x1="435" y1="573" x2="434" y2="573" gradientUnits="userSpaceOnUse">
<stop stop-color="white"/>
<stop offset="1" stop-color="white" stop-opacity="0"/>
</linearGradient>
<linearGradient id="paint15_linear_8966_69819" x1="465" y1="573" x2="464" y2="573" gradientUnits="userSpaceOnUse">
<stop stop-color="white"/>
<stop offset="1" stop-color="white" stop-opacity="0"/>
</linearGradient>
<linearGradient id="paint16_linear_8966_69819" x1="497" y1="573" x2="496" y2="573" gradientUnits="userSpaceOnUse">
<stop stop-color="white"/>
<stop offset="1" stop-color="white" stop-opacity="0"/>
</linearGradient>
<linearGradient id="paint17_linear_8966_69819" x1="527" y1="573" x2="526" y2="573" gradientUnits="userSpaceOnUse">
<stop stop-color="white"/>
<stop offset="1" stop-color="white" stop-opacity="0"/>
</linearGradient>
<linearGradient id="paint18_linear_8966_69819" x1="559" y1="573" x2="558" y2="573" gradientUnits="userSpaceOnUse">
<stop stop-color="white"/>
<stop offset="1" stop-color="white" stop-opacity="0"/>
</linearGradient>
<linearGradient id="paint19_linear_8966_69819" x1="590" y1="573" x2="589" y2="573" gradientUnits="userSpaceOnUse">
<stop stop-color="white"/>
<stop offset="1" stop-color="white" stop-opacity="0"/>
</linearGradient>
<linearGradient id="paint20_linear_8966_69819" x1="621" y1="573" x2="620" y2="573" gradientUnits="userSpaceOnUse">
<stop stop-color="white"/>
<stop offset="1" stop-color="white" stop-opacity="0"/>
</linearGradient>
<linearGradient id="paint21_linear_8966_69819" x1="652" y1="573" x2="651" y2="573" gradientUnits="userSpaceOnUse">
<stop stop-color="white"/>
<stop offset="1" stop-color="white" stop-opacity="0"/>
</linearGradient>
<linearGradient id="paint22_linear_8966_69819" x1="683" y1="573" x2="682" y2="573" gradientUnits="userSpaceOnUse">
<stop stop-color="white"/>
<stop offset="1" stop-color="white" stop-opacity="0"/>
</linearGradient>
<linearGradient id="paint23_linear_8966_69819" x1="714" y1="573" x2="713" y2="573" gradientUnits="userSpaceOnUse">
<stop stop-color="white"/>
<stop offset="1" stop-color="white" stop-opacity="0"/>
</linearGradient>
<linearGradient id="paint24_linear_8966_69819" x1="745" y1="573" x2="744" y2="573" gradientUnits="userSpaceOnUse">
<stop stop-color="white"/>
<stop offset="1" stop-color="white" stop-opacity="0"/>
</linearGradient>
<linearGradient id="paint25_linear_8966_69819" x1="776" y1="573" x2="775" y2="573" gradientUnits="userSpaceOnUse">
<stop stop-color="white"/>
<stop offset="1" stop-color="white" stop-opacity="0"/>
</linearGradient>
<linearGradient id="paint26_linear_8966_69819" x1="807" y1="573" x2="806" y2="573" gradientUnits="userSpaceOnUse">
<stop stop-color="white"/>
<stop offset="1" stop-color="white" stop-opacity="0"/>
</linearGradient>
<linearGradient id="paint27_linear_8966_69819" x1="838" y1="573" x2="837" y2="573" gradientUnits="userSpaceOnUse">
<stop stop-color="white"/>
<stop offset="1" stop-color="white" stop-opacity="0"/>
</linearGradient>
<linearGradient id="paint28_linear_8966_69819" x1="869" y1="573" x2="868" y2="573" gradientUnits="userSpaceOnUse">
<stop stop-color="white"/>
<stop offset="1" stop-color="white" stop-opacity="0"/>
</linearGradient>
<linearGradient id="paint29_linear_8966_69819" x1="900" y1="573" x2="899" y2="573" gradientUnits="userSpaceOnUse">
<stop stop-color="white"/>
<stop offset="1" stop-color="white" stop-opacity="0"/>
</linearGradient>
<linearGradient id="paint30_linear_8966_69819" x1="932" y1="573" x2="931" y2="573" gradientUnits="userSpaceOnUse">
<stop stop-color="white"/>
<stop offset="1" stop-color="white" stop-opacity="0"/>
</linearGradient>
<linearGradient id="paint31_linear_8966_69819" x1="963" y1="573" x2="962" y2="573" gradientUnits="userSpaceOnUse">
<stop stop-color="white"/>
<stop offset="1" stop-color="white" stop-opacity="0"/>
</linearGradient>
<linearGradient id="paint32_linear_8966_69819" x1="995" y1="573" x2="994" y2="573" gradientUnits="userSpaceOnUse">
<stop stop-color="white"/>
<stop offset="1" stop-color="white" stop-opacity="0"/>
</linearGradient>
<linearGradient id="paint33_linear_8966_69819" x1="1026" y1="573" x2="1025" y2="573" gradientUnits="userSpaceOnUse">
<stop stop-color="white"/>
<stop offset="1" stop-color="white" stop-opacity="0"/>
</linearGradient>
<linearGradient id="paint34_linear_8966_69819" x1="1058" y1="573" x2="1057" y2="573" gradientUnits="userSpaceOnUse">
<stop stop-color="white"/>
<stop offset="1" stop-color="white" stop-opacity="0"/>
</linearGradient>
<linearGradient id="paint35_linear_8966_69819" x1="1089" y1="573" x2="1088" y2="573" gradientUnits="userSpaceOnUse">
<stop stop-color="white"/>
<stop offset="1" stop-color="white" stop-opacity="0"/>
</linearGradient>
<linearGradient id="paint36_linear_8966_69819" x1="1121" y1="573" x2="1120" y2="573" gradientUnits="userSpaceOnUse">
<stop stop-color="white"/>
<stop offset="1" stop-color="white" stop-opacity="0"/>
</linearGradient>
<linearGradient id="paint37_linear_8966_69819" x1="1152" y1="573" x2="1151" y2="573" gradientUnits="userSpaceOnUse">
<stop stop-color="white"/>
<stop offset="1" stop-color="white" stop-opacity="0"/>
</linearGradient>
<linearGradient id="paint38_linear_8966_69819" x1="1184" y1="573" x2="1183" y2="573" gradientUnits="userSpaceOnUse">
<stop stop-color="white"/>
<stop offset="1" stop-color="white" stop-opacity="0"/>
</linearGradient>
<linearGradient id="paint39_linear_8966_69819" x1="1215" y1="573" x2="1214" y2="573" gradientUnits="userSpaceOnUse">
<stop stop-color="white"/>
<stop offset="1" stop-color="white" stop-opacity="0"/>
</linearGradient>
<linearGradient id="paint40_linear_8966_69819" x1="1247" y1="573" x2="1246" y2="573" gradientUnits="userSpaceOnUse">
<stop stop-color="white"/>
<stop offset="1" stop-color="white" stop-opacity="0"/>
</linearGradient>
<linearGradient id="paint41_linear_8966_69819" x1="1278" y1="573" x2="1277" y2="573" gradientUnits="userSpaceOnUse">
<stop stop-color="white"/>
<stop offset="1" stop-color="white" stop-opacity="0"/>
</linearGradient>
<linearGradient id="paint42_linear_8966_69819" x1="1310" y1="573" x2="1309" y2="573" gradientUnits="userSpaceOnUse">
<stop stop-color="white"/>
<stop offset="1" stop-color="white" stop-opacity="0"/>
</linearGradient>
<linearGradient id="paint43_linear_8966_69819" x1="1341" y1="573" x2="1340" y2="573" gradientUnits="userSpaceOnUse">
<stop stop-color="white"/>
<stop offset="1" stop-color="white" stop-opacity="0"/>
</linearGradient>
<linearGradient id="paint44_linear_8966_69819" x1="1373" y1="573" x2="1372" y2="573" gradientUnits="userSpaceOnUse">
<stop stop-color="white"/>
<stop offset="1" stop-color="white" stop-opacity="0"/>
</linearGradient>
<linearGradient id="paint45_linear_8966_69819" x1="1404" y1="573" x2="1403" y2="573" gradientUnits="userSpaceOnUse">
<stop stop-color="white"/>
<stop offset="1" stop-color="white" stop-opacity="0"/>
</linearGradient>
<linearGradient id="paint46_linear_8966_69819" x1="1436" y1="573" x2="1435" y2="573" gradientUnits="userSpaceOnUse">
<stop stop-color="white"/>
<stop offset="1" stop-color="white" stop-opacity="0"/>
</linearGradient>
<linearGradient id="paint47_linear_8966_69819" x1="720" y1="31.7031" x2="720" y2="30.7031" gradientUnits="userSpaceOnUse">
<stop stop-color="white"/>
<stop offset="1" stop-color="white" stop-opacity="0"/>
</linearGradient>
<linearGradient id="paint48_linear_8966_69819" x1="720" y1="64.3398" x2="720" y2="63.3398" gradientUnits="userSpaceOnUse">
<stop stop-color="white"/>
<stop offset="1" stop-color="white" stop-opacity="0"/>
</linearGradient>
<linearGradient id="paint49_linear_8966_69819" x1="720" y1="96.039" x2="720" y2="95.039" gradientUnits="userSpaceOnUse">
<stop stop-color="white"/>
<stop offset="1" stop-color="white" stop-opacity="0"/>
</linearGradient>
<linearGradient id="paint50_linear_8966_69819" x1="720" y1="128.699" x2="720" y2="127.699" gradientUnits="userSpaceOnUse">
<stop stop-color="white"/>
<stop offset="1" stop-color="white" stop-opacity="0"/>
</linearGradient>
<linearGradient id="paint51_linear_8966_69819" x1="720" y1="160.402" x2="720" y2="159.402" gradientUnits="userSpaceOnUse">
<stop stop-color="white"/>
<stop offset="1" stop-color="white" stop-opacity="0"/>
</linearGradient>
<linearGradient id="paint52_linear_8966_69819" x1="720" y1="193.043" x2="720" y2="192.043" gradientUnits="userSpaceOnUse">
<stop stop-color="white"/>
<stop offset="1" stop-color="white" stop-opacity="0"/>
</linearGradient>
<linearGradient id="paint53_linear_8966_69819" x1="720" y1="224.742" x2="720" y2="223.742" gradientUnits="userSpaceOnUse">
<stop stop-color="white"/>
<stop offset="1" stop-color="white" stop-opacity="0"/>
</linearGradient>
<linearGradient id="paint54_linear_8966_69819" x1="720" y1="257.379" x2="720" y2="256.379" gradientUnits="userSpaceOnUse">
<stop stop-color="white"/>
<stop offset="1" stop-color="white" stop-opacity="0"/>
</linearGradient>
<linearGradient id="paint55_linear_8966_69819" x1="720" y1="289.102" x2="720" y2="288.102" gradientUnits="userSpaceOnUse">
<stop stop-color="white"/>
<stop offset="1" stop-color="white" stop-opacity="0"/>
</linearGradient>
<linearGradient id="paint56_linear_8966_69819" x1="720" y1="321.738" x2="720" y2="320.738" gradientUnits="userSpaceOnUse">
<stop stop-color="white"/>
<stop offset="1" stop-color="white" stop-opacity="0"/>
</linearGradient>
<linearGradient id="paint57_linear_8966_69819" x1="720" y1="353.441" x2="720" y2="352.441" gradientUnits="userSpaceOnUse">
<stop stop-color="white"/>
<stop offset="1" stop-color="white" stop-opacity="0"/>
</linearGradient>
<linearGradient id="paint58_linear_8966_69819" x1="720" y1="386.078" x2="720" y2="385.078" gradientUnits="userSpaceOnUse">
<stop stop-color="white"/>
<stop offset="1" stop-color="white" stop-opacity="0"/>
</linearGradient>
<linearGradient id="paint59_linear_8966_69819" x1="720" y1="417.785" x2="720" y2="416.785" gradientUnits="userSpaceOnUse">
<stop stop-color="white"/>
<stop offset="1" stop-color="white" stop-opacity="0"/>
</linearGradient>
<linearGradient id="paint60_linear_8966_69819" x1="720" y1="450.441" x2="720" y2="449.441" gradientUnits="userSpaceOnUse">
<stop stop-color="white"/>
<stop offset="1" stop-color="white" stop-opacity="0"/>
</linearGradient>
<linearGradient id="paint61_linear_8966_69819" x1="720" y1="482.144" x2="720" y2="481.144" gradientUnits="userSpaceOnUse">
<stop stop-color="white"/>
<stop offset="1" stop-color="white" stop-opacity="0"/>
</linearGradient>
<linearGradient id="paint62_linear_8966_69819" x1="720" y1="514.777" x2="720" y2="513.777" gradientUnits="userSpaceOnUse">
<stop stop-color="white"/>
<stop offset="1" stop-color="white" stop-opacity="0"/>
</linearGradient>
<linearGradient id="paint63_linear_8966_69819" x1="720" y1="546.48" x2="720" y2="545.48" gradientUnits="userSpaceOnUse">
<stop stop-color="white"/>
<stop offset="1" stop-color="white" stop-opacity="0"/>
</linearGradient>
<linearGradient id="paint64_linear_8966_69819" x1="720" y1="579.113" x2="720" y2="578.113" gradientUnits="userSpaceOnUse">
<stop stop-color="white"/>
<stop offset="1" stop-color="white" stop-opacity="0"/>
</linearGradient>
<linearGradient id="paint65_linear_8966_69819" x1="720" y1="610.82" x2="720" y2="609.82" gradientUnits="userSpaceOnUse">
<stop stop-color="white"/>
<stop offset="1" stop-color="white" stop-opacity="0"/>
</linearGradient>
<linearGradient id="paint66_linear_8966_69819" x1="720" y1="643.473" x2="720" y2="642.473" gradientUnits="userSpaceOnUse">
<stop stop-color="white"/>
<stop offset="1" stop-color="white" stop-opacity="0"/>
</linearGradient>
<linearGradient id="paint67_linear_8966_69819" x1="720" y1="675.184" x2="720" y2="674.184" gradientUnits="userSpaceOnUse">
<stop stop-color="white"/>
<stop offset="1" stop-color="white" stop-opacity="0"/>
</linearGradient>
<linearGradient id="paint68_linear_8966_69819" x1="720" y1="707.816" x2="720" y2="706.816" gradientUnits="userSpaceOnUse">
<stop stop-color="white"/>
<stop offset="1" stop-color="white" stop-opacity="0"/>
</linearGradient>
<linearGradient id="paint69_linear_8966_69819" x1="720" y1="739.523" x2="720" y2="738.523" gradientUnits="userSpaceOnUse">
<stop stop-color="white"/>
<stop offset="1" stop-color="white" stop-opacity="0"/>
</linearGradient>
<linearGradient id="paint70_linear_8966_69819" x1="720" y1="772.156" x2="720" y2="771.156" gradientUnits="userSpaceOnUse">
<stop stop-color="white"/>
<stop offset="1" stop-color="white" stop-opacity="0"/>
</linearGradient>
<linearGradient id="paint71_linear_8966_69819" x1="720" y1="803.883" x2="720" y2="802.883" gradientUnits="userSpaceOnUse">
<stop stop-color="white"/>
<stop offset="1" stop-color="white" stop-opacity="0"/>
</linearGradient>
<linearGradient id="paint72_linear_8966_69819" x1="720" y1="836.516" x2="720" y2="835.516" gradientUnits="userSpaceOnUse">
<stop stop-color="white"/>
<stop offset="1" stop-color="white" stop-opacity="0"/>
</linearGradient>
<linearGradient id="paint73_linear_8966_69819" x1="720" y1="868.219" x2="720" y2="867.219" gradientUnits="userSpaceOnUse">
<stop stop-color="white"/>
<stop offset="1" stop-color="white" stop-opacity="0"/>
</linearGradient>
<linearGradient id="paint74_linear_8966_69819" x1="720" y1="900.852" x2="720" y2="899.852" gradientUnits="userSpaceOnUse">
<stop stop-color="white"/>
<stop offset="1" stop-color="white" stop-opacity="0"/>
</linearGradient>
<linearGradient id="paint75_linear_8966_69819" x1="720" y1="932.555" x2="720" y2="931.555" gradientUnits="userSpaceOnUse">
<stop stop-color="white"/>
<stop offset="1" stop-color="white" stop-opacity="0"/>
</linearGradient>
<linearGradient id="paint76_linear_8966_69819" x1="720" y1="965.211" x2="720" y2="964.211" gradientUnits="userSpaceOnUse">
<stop stop-color="white"/>
<stop offset="1" stop-color="white" stop-opacity="0"/>
</linearGradient>
<linearGradient id="paint77_linear_8966_69819" x1="720" y1="997.848" x2="720" y2="996.848" gradientUnits="userSpaceOnUse">
<stop stop-color="white"/>
<stop offset="1" stop-color="white" stop-opacity="0"/>
</linearGradient>
<linearGradient id="paint78_linear_8966_69819" x1="720" y1="1030.48" x2="720" y2="1029.48" gradientUnits="userSpaceOnUse">
<stop stop-color="white"/>
<stop offset="1" stop-color="white" stop-opacity="0"/>
</linearGradient>
<linearGradient id="paint79_linear_8966_69819" x1="720" y1="1063.11" x2="720" y2="1062.11" gradientUnits="userSpaceOnUse">
<stop stop-color="white"/>
<stop offset="1" stop-color="white" stop-opacity="0"/>
</linearGradient>
<linearGradient id="paint80_linear_8966_69819" x1="720" y1="1095.77" x2="720" y2="1094.77" gradientUnits="userSpaceOnUse">
<stop stop-color="white"/>
<stop offset="1" stop-color="white" stop-opacity="0"/>
</linearGradient>
<linearGradient id="paint81_linear_8966_69819" x1="720" y1="1128.4" x2="720" y2="1127.4" gradientUnits="userSpaceOnUse">
<stop stop-color="white"/>
<stop offset="1" stop-color="white" stop-opacity="0"/>
</linearGradient>
<linearGradient id="paint82_linear_8966_69819" x1="720" y1="795.161" x2="720" y2="-3.98727e-05" gradientUnits="userSpaceOnUse">
<stop stop-color="#15181A"/>
<stop offset="1" stop-color="#151819" stop-opacity="0"/>
</linearGradient>
</defs>
</svg>
