<svg width="24" height="24" viewBox="0 0 24 24" fill="none" xmlns="http://www.w3.org/2000/svg">
<path d="M20.5004 9.5L12.0004 4.5L2.24707 9.5L11.5004 15L20.5004 9.5Z" fill="#FB813E"/>
<path d="M23.4171 9.41236L22.274 8.7837L11.9868 3.06858H11.8611C11.791 3.03895 11.7183 3.01599 11.6439 3H11.221C11.1429 3.016 11.0664 3.03895 10.9924 3.06858H10.8667L0.579454 8.7837C0.403545 8.88339 0.257228 9.02796 0.155431 9.20266C0.0536343 9.37736 0 9.57593 0 9.77813C0 9.98032 0.0536343 10.1789 0.155431 10.3536C0.257228 10.5283 0.403545 10.6729 0.579454 10.7726L3.42558 12.3499V17.7679C3.42558 18.6773 3.78686 19.5495 4.42993 20.1926C5.07301 20.8357 5.94521 21.1969 6.85465 21.1969H15.9988C16.9083 21.1969 17.7805 20.8357 18.4236 20.1926C19.0666 19.5495 19.4279 18.6773 19.4279 17.7679V12.3499L21.714 11.0697V14.3388C21.714 14.6419 21.8344 14.9327 22.0487 15.147C22.2631 15.3614 22.5538 15.4818 22.857 15.4818C23.1601 15.4818 23.4509 15.3614 23.6652 15.147C23.8796 14.9327 24 14.6419 24 14.3388V10.4068C23.9997 10.2043 23.9455 10.0054 23.8431 9.83071C23.7406 9.65598 23.5936 9.5116 23.4171 9.41236ZM17.1419 17.7679C17.1419 18.071 17.0214 18.3617 16.8071 18.5761C16.5927 18.7905 16.302 18.9109 15.9988 18.9109H6.85465C6.5515 18.9109 6.26077 18.7905 6.04641 18.5761C5.83205 18.3617 5.71163 18.071 5.71163 17.7679V13.6187L10.8667 16.4762L11.0381 16.5448H11.141C11.2359 16.5568 11.3319 16.5568 11.4267 16.5448C11.5216 16.5568 11.6176 16.5568 11.7125 16.5448H11.8154C11.8761 16.532 11.9341 16.5088 11.9868 16.4762L17.1419 13.6187V17.7679ZM11.4267 14.1788L3.49416 9.7667L11.4267 5.35463L19.3593 9.7667L11.4267 14.1788Z" fill="black"/>
</svg>
