<svg width="20" height="20" viewBox="0 0 20 20" fill="none" xmlns="http://www.w3.org/2000/svg">
<path d="M2.14444 7.05276L9.35976 3.44512C9.50051 3.37474 9.66618 3.37474 9.80693 3.44512L17.0223 7.05276C17.3908 7.23703 17.3908 7.76293 17.0223 7.9472L9.80693 11.5548C9.66618 11.6252 9.50051 11.6252 9.35976 11.5548L2.14444 7.9472C1.77591 7.76293 1.77591 7.23703 2.14444 7.05276Z" fill="#EDF4FF" stroke="black" stroke-linecap="round" stroke-linejoin="round"/>
<path d="M18.75 10.8333V7.91659L17.0833 7.08325" stroke="black" stroke-linecap="round" stroke-linejoin="round"/>
<path d="M3.75 8.75V13.2601C3.75 13.9036 4.12049 14.4897 4.70183 14.7657L8.8685 16.744C9.32083 16.9587 9.84583 16.9587 10.2982 16.744L14.4648 14.7657C15.0462 14.4897 15.4167 13.9036 15.4167 13.2601V8.75" stroke="black" stroke-linecap="round" stroke-linejoin="round"/>
</svg>
