<svg width="322" height="53" viewBox="0 0 322 53" fill="none" xmlns="http://www.w3.org/2000/svg">
<mask id="path-1-outside-1_9700_49384" maskUnits="userSpaceOnUse" x="-1" y="-1" width="324" height="55" fill="black">
<rect fill="white" x="-1" y="-1" width="324" height="55"/>
<path d="M18.9751 52L0.687099 1.24H16.6711L27.3991 35.152H23.8711L36.1111 1.24H47.1271L57.9991 35.152H54.6151L66.4231 1.24H81.3991L63.0391 52H50.7271L40.3591 22.336H42.0151L31.3591 52H18.9751ZM86.1308 52V1.24H101.683V19.96H119.035V1.24H134.587V52H119.035V32.632H101.683V52H86.1308ZM158.063 52V27.592L161.087 35.944L137.903 1.24H155.759L167.495 20.104H164.543L176.351 1.24H193.703L170.519 35.944L173.615 27.592V52H158.063ZM244.661 52.864C236.837 52.864 230.957 50.968 227.021 47.176C223.085 43.336 221.117 37.576 221.117 29.896V1.24H236.669V30.112C236.669 33.328 237.293 35.776 238.541 37.456C239.837 39.136 241.877 39.976 244.661 39.976C247.445 39.976 249.461 39.136 250.709 37.456C252.005 35.776 252.653 33.328 252.653 30.112V1.24H267.917V29.896C267.917 37.576 265.997 43.336 262.157 47.176C258.365 50.968 252.533 52.864 244.661 52.864ZM298.648 52.864C294.52 52.864 290.536 52.384 286.696 51.424C282.904 50.464 279.76 49.168 277.264 47.536L281.512 35.584C283.048 36.496 284.776 37.312 286.696 38.032C288.616 38.704 290.608 39.256 292.672 39.688C294.736 40.072 296.776 40.264 298.792 40.264C301.624 40.264 303.52 39.976 304.48 39.4C305.44 38.776 305.92 38.032 305.92 37.168C305.92 36.352 305.608 35.704 304.984 35.224C304.408 34.744 303.184 34.312 301.312 33.928L292.168 32.056C287.512 31.096 284.008 29.392 281.656 26.944C279.352 24.496 278.2 21.328 278.2 17.44C278.2 13.984 279.136 10.984 281.008 8.44C282.88 5.896 285.52 3.928 288.928 2.536C292.336 1.096 296.32 0.375999 300.88 0.375999C304.48 0.375999 307.888 0.855999 311.104 1.816C314.32 2.776 316.936 4.072 318.952 5.704L314.704 16.936C312.88 15.688 310.768 14.728 308.368 14.056C306.016 13.336 303.4 12.976 300.52 12.976C298.12 12.976 296.32 13.264 295.12 13.84C293.968 14.416 293.392 15.256 293.392 16.36C293.392 17.032 293.728 17.656 294.4 18.232C295.072 18.808 296.368 19.288 298.288 19.672L307.288 21.472C311.848 22.384 315.28 24.064 317.584 26.512C319.936 28.96 321.112 32.104 321.112 35.944C321.112 39.352 320.176 42.328 318.304 44.872C316.432 47.416 313.816 49.384 310.456 50.776C307.096 52.168 303.16 52.864 298.648 52.864Z"/>
</mask>
<path d="M18.9751 52L0.687099 1.24H16.6711L27.3991 35.152H23.8711L36.1111 1.24H47.1271L57.9991 35.152H54.6151L66.4231 1.24H81.3991L63.0391 52H50.7271L40.3591 22.336H42.0151L31.3591 52H18.9751ZM86.1308 52V1.24H101.683V19.96H119.035V1.24H134.587V52H119.035V32.632H101.683V52H86.1308ZM158.063 52V27.592L161.087 35.944L137.903 1.24H155.759L167.495 20.104H164.543L176.351 1.24H193.703L170.519 35.944L173.615 27.592V52H158.063ZM244.661 52.864C236.837 52.864 230.957 50.968 227.021 47.176C223.085 43.336 221.117 37.576 221.117 29.896V1.24H236.669V30.112C236.669 33.328 237.293 35.776 238.541 37.456C239.837 39.136 241.877 39.976 244.661 39.976C247.445 39.976 249.461 39.136 250.709 37.456C252.005 35.776 252.653 33.328 252.653 30.112V1.24H267.917V29.896C267.917 37.576 265.997 43.336 262.157 47.176C258.365 50.968 252.533 52.864 244.661 52.864ZM298.648 52.864C294.52 52.864 290.536 52.384 286.696 51.424C282.904 50.464 279.76 49.168 277.264 47.536L281.512 35.584C283.048 36.496 284.776 37.312 286.696 38.032C288.616 38.704 290.608 39.256 292.672 39.688C294.736 40.072 296.776 40.264 298.792 40.264C301.624 40.264 303.52 39.976 304.48 39.4C305.44 38.776 305.92 38.032 305.92 37.168C305.92 36.352 305.608 35.704 304.984 35.224C304.408 34.744 303.184 34.312 301.312 33.928L292.168 32.056C287.512 31.096 284.008 29.392 281.656 26.944C279.352 24.496 278.2 21.328 278.2 17.44C278.2 13.984 279.136 10.984 281.008 8.44C282.88 5.896 285.52 3.928 288.928 2.536C292.336 1.096 296.32 0.375999 300.88 0.375999C304.48 0.375999 307.888 0.855999 311.104 1.816C314.32 2.776 316.936 4.072 318.952 5.704L314.704 16.936C312.88 15.688 310.768 14.728 308.368 14.056C306.016 13.336 303.4 12.976 300.52 12.976C298.12 12.976 296.32 13.264 295.12 13.84C293.968 14.416 293.392 15.256 293.392 16.36C293.392 17.032 293.728 17.656 294.4 18.232C295.072 18.808 296.368 19.288 298.288 19.672L307.288 21.472C311.848 22.384 315.28 24.064 317.584 26.512C319.936 28.96 321.112 32.104 321.112 35.944C321.112 39.352 320.176 42.328 318.304 44.872C316.432 47.416 313.816 49.384 310.456 50.776C307.096 52.168 303.16 52.864 298.648 52.864Z" fill="url(#paint0_linear_9700_49384)" fill-opacity="0.42"/>
<path d="M18.9751 52L18.0343 52.339L18.2725 53H18.9751V52ZM0.687099 1.24V0.239997H-0.736107L-0.253703 1.57895L0.687099 1.24ZM16.6711 1.24L17.6245 0.938381L17.4036 0.239997H16.6711V1.24ZM27.3991 35.152V36.152H28.7643L28.3525 34.8504L27.3991 35.152ZM23.8711 35.152L22.9305 34.8125L22.447 36.152H23.8711V35.152ZM36.1111 1.24V0.239997H35.4089L35.1705 0.9005L36.1111 1.24ZM47.1271 1.24L48.0794 0.934708L47.8566 0.239997H47.1271V1.24ZM57.9991 35.152V36.152H59.3698L58.9514 34.8467L57.9991 35.152ZM54.6151 35.152L53.6707 34.8232L53.208 36.152H54.6151V35.152ZM66.4231 1.24V0.239997H65.7124L65.4787 0.911165L66.4231 1.24ZM81.3991 1.24L82.3395 1.58013L82.8242 0.239997H81.3991V1.24ZM63.0391 52V53H63.7408L63.9795 52.3401L63.0391 52ZM50.7271 52L49.7831 52.3299L50.0173 53H50.7271V52ZM40.3591 22.336V21.336H38.9503L39.4151 22.6659L40.3591 22.336ZM42.0151 22.336L42.9562 22.6741L43.4369 21.336H42.0151V22.336ZM31.3591 52V53H32.0624L32.3002 52.3381L31.3591 52ZM19.9159 51.661L1.6279 0.901041L-0.253703 1.57895L18.0343 52.339L19.9159 51.661ZM0.687099 2.24H16.6711V0.239997H0.687099V2.24ZM15.7177 1.54161L26.4457 35.4536L28.3525 34.8504L17.6245 0.938381L15.7177 1.54161ZM27.3991 34.152H23.8711V36.152H27.3991V34.152ZM24.8117 35.4915L37.0517 1.57949L35.1705 0.9005L22.9305 34.8125L24.8117 35.4915ZM36.1111 2.24H47.1271V0.239997H36.1111V2.24ZM46.1748 1.54529L57.0468 35.4573L58.9514 34.8467L48.0794 0.934708L46.1748 1.54529ZM57.9991 34.152H54.6151V36.152H57.9991V34.152ZM55.5595 35.4808L67.3675 1.56883L65.4787 0.911165L53.6707 34.8232L55.5595 35.4808ZM66.4231 2.24H81.3991V0.239997H66.4231V2.24ZM80.4587 0.899861L62.0987 51.6599L63.9795 52.3401L82.3395 1.58013L80.4587 0.899861ZM63.0391 51H50.7271V53H63.0391V51ZM51.6711 51.6701L41.3031 22.0061L39.4151 22.6659L49.7831 52.3299L51.6711 51.6701ZM40.3591 23.336H42.0151V21.336H40.3591V23.336ZM41.074 21.9979L30.418 51.6619L32.3002 52.3381L42.9562 22.6741L41.074 21.9979ZM31.3591 51H18.9751V53H31.3591V51ZM86.1308 52H85.1308V53H86.1308V52ZM86.1308 1.24V0.239997H85.1308V1.24H86.1308ZM101.683 1.24H102.683V0.239997H101.683V1.24ZM101.683 19.96H100.683V20.96H101.683V19.96ZM119.035 19.96V20.96H120.035V19.96H119.035ZM119.035 1.24V0.239997H118.035V1.24H119.035ZM134.587 1.24H135.587V0.239997H134.587V1.24ZM134.587 52V53H135.587V52H134.587ZM119.035 52H118.035V53H119.035V52ZM119.035 32.632H120.035V31.632H119.035V32.632ZM101.683 32.632V31.632H100.683V32.632H101.683ZM101.683 52V53H102.683V52H101.683ZM87.1308 52V1.24H85.1308V52H87.1308ZM86.1308 2.24H101.683V0.239997H86.1308V2.24ZM100.683 1.24V19.96H102.683V1.24H100.683ZM101.683 20.96H119.035V18.96H101.683V20.96ZM120.035 19.96V1.24H118.035V19.96H120.035ZM119.035 2.24H134.587V0.239997H119.035V2.24ZM133.587 1.24V52H135.587V1.24H133.587ZM134.587 51H119.035V53H134.587V51ZM120.035 52V32.632H118.035V52H120.035ZM119.035 31.632H101.683V33.632H119.035V31.632ZM100.683 32.632V52H102.683V32.632H100.683ZM101.683 51H86.1308V53H101.683V51ZM158.063 52H157.063V53H158.063V52ZM158.063 27.592L159.004 27.2516L157.063 27.592H158.063ZM161.087 35.944L160.256 36.4995L162.028 35.6036L161.087 35.944ZM137.903 1.24V0.239997H136.033L137.072 1.79549L137.903 1.24ZM155.759 1.24L156.608 0.711747L156.315 0.239997H155.759V1.24ZM167.495 20.104V21.104H169.295L168.344 19.5757L167.495 20.104ZM164.543 20.104L163.696 19.5734L162.738 21.104H164.543V20.104ZM176.351 1.24V0.239997H175.798L175.504 0.709417L176.351 1.24ZM193.703 1.24L194.535 1.79549L195.574 0.239997H193.703V1.24ZM170.519 35.944L169.582 35.5964L171.351 36.4995L170.519 35.944ZM173.615 27.592H174.615L172.678 27.2444L173.615 27.592ZM173.615 52V53H174.615V52H173.615ZM159.063 52V27.592H157.063V52H159.063ZM157.123 27.9324L160.147 36.2844L162.028 35.6036L159.004 27.2516L157.123 27.9324ZM161.919 35.3885L138.735 0.684501L137.072 1.79549L160.256 36.4995L161.919 35.3885ZM137.903 2.24H155.759V0.239997H137.903V2.24ZM154.91 1.76825L166.646 20.6322L168.344 19.5757L156.608 0.711747L154.91 1.76825ZM167.495 19.104H164.543V21.104H167.495V19.104ZM165.391 20.6346L177.199 1.77058L175.504 0.709417L163.696 19.5734L165.391 20.6346ZM176.351 2.24H193.703V0.239997H176.351V2.24ZM192.872 0.684501L169.688 35.3885L171.351 36.4995L194.535 1.79549L192.872 0.684501ZM171.457 36.2916L174.553 27.9396L172.678 27.2444L169.582 35.5964L171.457 36.2916ZM172.615 27.592V52H174.615V27.592H172.615ZM173.615 51H158.063V53H173.615V51ZM227.021 47.176L226.323 47.8918L226.328 47.8962L227.021 47.176ZM221.117 1.24V0.239997H220.117V1.24H221.117ZM236.669 1.24H237.669V0.239997H236.669V1.24ZM238.541 37.456L237.739 38.0523L237.744 38.0596L237.75 38.0668L238.541 37.456ZM250.709 37.456L249.918 36.8452L249.912 36.8524L249.907 36.8597L250.709 37.456ZM252.653 1.24V0.239997H251.653V1.24H252.653ZM267.917 1.24H268.917V0.239997H267.917V1.24ZM262.157 47.176L261.45 46.4689L261.45 46.4689L262.157 47.176ZM244.661 51.864C236.984 51.864 231.397 50.0034 227.715 46.4558L226.328 47.8962C230.517 51.9326 236.69 53.864 244.661 53.864V51.864ZM227.72 46.4602C224.043 42.8729 222.117 37.4155 222.117 29.896H220.117C220.117 37.7365 222.128 43.7991 226.323 47.8918L227.72 46.4602ZM222.117 29.896V1.24H220.117V29.896H222.117ZM221.117 2.24H236.669V0.239997H221.117V2.24ZM235.669 1.24V30.112H237.669V1.24H235.669ZM235.669 30.112C235.669 33.4344 236.31 36.1295 237.739 38.0523L239.344 36.8597C238.276 35.4225 237.669 33.2216 237.669 30.112H235.669ZM237.75 38.0668C239.291 40.0649 241.672 40.976 244.661 40.976V38.976C242.082 38.976 240.384 38.2071 239.333 36.8452L237.75 38.0668ZM244.661 40.976C247.648 40.976 250.017 40.0654 251.512 38.0523L249.907 36.8597C248.906 38.2066 247.243 38.976 244.661 38.976V40.976ZM251.501 38.0668C252.986 36.142 253.653 33.4408 253.653 30.112H251.653C251.653 33.2152 251.025 35.41 249.918 36.8452L251.501 38.0668ZM253.653 30.112V1.24H251.653V30.112H253.653ZM252.653 2.24H267.917V0.239997H252.653V2.24ZM266.917 1.24V29.896H268.917V1.24H266.917ZM266.917 29.896C266.917 37.4219 265.037 42.8826 261.45 46.4689L262.864 47.8831C266.958 43.7894 268.917 37.7301 268.917 29.896H266.917ZM261.45 46.4689C257.918 50.001 252.392 51.864 244.661 51.864V53.864C252.675 53.864 258.813 51.935 262.864 47.8831L261.45 46.4689ZM286.696 51.424L286.45 52.3934L286.453 52.3941L286.696 51.424ZM277.264 47.536L276.322 47.2011L276.058 47.9424L276.717 48.373L277.264 47.536ZM281.512 35.584L282.022 34.7241L280.977 34.1033L280.57 35.2491L281.512 35.584ZM286.696 38.032L286.345 38.9683L286.355 38.9722L286.366 38.9759L286.696 38.032ZM292.672 39.688L292.467 40.6668L292.478 40.6691L292.489 40.6711L292.672 39.688ZM304.48 39.4L304.994 40.2575L305.01 40.2482L305.025 40.2384L304.48 39.4ZM304.984 35.224L304.344 35.9922L304.359 36.0047L304.374 36.0166L304.984 35.224ZM301.312 33.928L301.513 32.9484L301.512 32.9483L301.312 33.928ZM292.168 32.056L291.966 33.0354L291.967 33.0357L292.168 32.056ZM281.656 26.944L280.928 27.6294L280.935 27.6368L281.656 26.944ZM281.008 8.44L281.813 9.03268L281.813 9.03268L281.008 8.44ZM288.928 2.536L289.306 3.46182L289.317 3.45714L288.928 2.536ZM311.104 1.816L311.39 0.857779L311.39 0.857779L311.104 1.816ZM318.952 5.704L319.887 6.05775L320.143 5.3816L319.581 4.92675L318.952 5.704ZM314.704 16.936L314.139 17.7613L315.189 18.4797L315.639 17.2897L314.704 16.936ZM308.368 14.056L308.075 15.0122L308.087 15.0157L308.098 15.019L308.368 14.056ZM295.12 13.84L294.687 12.9385L294.68 12.942L294.673 12.9456L295.12 13.84ZM294.4 18.232L293.749 18.9913L293.749 18.9913L294.4 18.232ZM298.288 19.672L298.484 18.6914L298.484 18.6914L298.288 19.672ZM307.288 21.472L307.092 22.4526L307.092 22.4526L307.288 21.472ZM317.584 26.512L316.856 27.1974L316.863 27.2048L317.584 26.512ZM318.304 44.872L319.109 45.4647L319.109 45.4647L318.304 44.872ZM310.456 50.776L310.839 51.6999L310.456 50.776ZM298.648 51.864C294.598 51.864 290.696 51.3932 286.938 50.4539L286.453 52.3941C290.376 53.3748 294.442 53.864 298.648 53.864V51.864ZM286.941 50.4546C283.225 49.5138 280.191 48.255 277.811 46.699L276.717 48.373C279.329 50.081 282.583 51.4142 286.45 52.3934L286.941 50.4546ZM278.206 47.8709L282.454 35.9189L280.57 35.2491L276.322 47.2011L278.206 47.8709ZM281.001 36.4439C282.595 37.39 284.377 38.2306 286.345 38.9683L287.047 37.0957C285.174 36.3934 283.501 35.602 282.022 34.7241L281.001 36.4439ZM286.366 38.9759C288.328 39.6627 290.362 40.2262 292.467 40.6668L292.877 38.7092C290.854 38.2858 288.904 37.7453 287.026 37.0881L286.366 38.9759ZM292.489 40.6711C294.611 41.0659 296.712 41.264 298.792 41.264V39.264C296.84 39.264 294.861 39.0781 292.855 38.7049L292.489 40.6711ZM298.792 41.264C300.237 41.264 301.473 41.1908 302.488 41.0367C303.486 40.885 304.35 40.644 304.994 40.2575L303.965 38.5425C303.65 38.732 303.086 38.923 302.188 39.0593C301.307 39.1932 300.179 39.264 298.792 39.264V41.264ZM305.025 40.2384C306.166 39.4969 306.92 38.4773 306.92 37.168H304.92C304.92 37.5867 304.714 38.0551 303.935 38.5616L305.025 40.2384ZM306.92 37.168C306.92 36.0548 306.474 35.1086 305.594 34.4314L304.374 36.0166C304.742 36.2994 304.92 36.6492 304.92 37.168H306.92ZM305.624 34.4558C305.201 34.1036 304.621 33.828 303.967 33.597C303.297 33.3605 302.475 33.1457 301.513 32.9484L301.111 34.9076C302.021 35.0943 302.747 35.2875 303.301 35.483C303.871 35.684 304.19 35.8644 304.344 35.9922L305.624 34.4558ZM301.512 32.9483L292.368 31.0763L291.967 33.0357L301.111 34.9077L301.512 32.9483ZM292.37 31.0766C287.835 30.1416 284.543 28.5056 282.377 26.2512L280.935 27.6368C283.473 30.2784 287.188 32.0504 291.966 33.0354L292.37 31.0766ZM282.384 26.2586C280.282 24.0251 279.2 21.116 279.2 17.44H277.2C277.2 21.54 278.422 24.9669 280.928 27.6294L282.384 26.2586ZM279.2 17.44C279.2 14.1761 280.08 11.3886 281.813 9.03268L280.202 7.84732C278.192 10.5794 277.2 13.7919 277.2 17.44H279.2ZM281.813 9.03268C283.559 6.65998 286.04 4.79586 289.306 3.46175L288.55 1.61024C285 3.06014 282.2 5.13201 280.202 7.84732L281.813 9.03268ZM289.317 3.45714C292.577 2.07977 296.423 1.376 300.88 1.376V-0.624001C296.216 -0.624001 292.095 0.112223 288.539 1.61485L289.317 3.45714ZM300.88 1.376C304.39 1.376 307.701 1.84386 310.818 2.77422L311.39 0.857779C308.075 -0.131865 304.57 -0.624001 300.88 -0.624001V1.376ZM310.818 2.77422C313.944 3.70735 316.433 4.95166 318.323 6.48124L319.581 4.92675C317.439 3.19233 314.696 1.84464 311.39 0.857779L310.818 2.77422ZM318.017 5.35025L313.769 16.5822L315.639 17.2897L319.887 6.05775L318.017 5.35025ZM315.269 16.1107C313.344 14.7937 311.129 13.7908 308.637 13.093L308.098 15.019C310.406 15.6652 312.416 16.5823 314.139 17.7613L315.269 16.1107ZM308.661 13.0998C306.199 12.3463 303.483 11.976 300.52 11.976V13.976C303.317 13.976 305.833 14.3257 308.075 15.0122L308.661 13.0998ZM300.52 11.976C298.072 11.976 296.091 12.2647 294.687 12.9385L295.553 14.7415C296.549 14.2633 298.168 13.976 300.52 13.976V11.976ZM294.673 12.9456C293.984 13.2897 293.405 13.7443 292.999 14.3365C292.587 14.937 292.392 15.6239 292.392 16.36H294.392C294.392 15.9921 294.484 15.707 294.649 15.4675C294.819 15.2197 295.103 14.9663 295.567 14.7344L294.673 12.9456ZM292.392 16.36C292.392 17.4098 292.93 18.2894 293.749 18.9913L295.051 17.4727C294.526 17.0226 294.392 16.6542 294.392 16.36H292.392ZM293.749 18.9913C294.635 19.7502 296.161 20.2665 298.092 20.6526L298.484 18.6914C296.574 18.3095 295.509 17.8658 295.051 17.4727L293.749 18.9913ZM298.092 20.6526L307.092 22.4526L307.484 20.4914L298.484 18.6914L298.092 20.6526ZM307.092 22.4526C311.524 23.339 314.739 24.9487 316.856 27.1974L318.312 25.8266C315.82 23.1793 312.172 21.4289 307.484 20.4914L307.092 22.4526ZM316.863 27.2048C319.012 29.4417 320.112 32.3256 320.112 35.944H322.112C322.112 31.8824 320.86 28.4783 318.305 25.8192L316.863 27.2048ZM320.112 35.944C320.112 39.1566 319.234 41.9209 317.498 44.2793L319.109 45.4647C321.118 42.7351 322.112 39.5474 322.112 35.944H320.112ZM317.498 44.2793C315.75 46.6554 313.291 48.5192 310.073 49.8521L310.839 51.6999C314.341 50.2488 317.114 48.1766 319.109 45.4647L317.498 44.2793ZM310.073 49.8521C306.86 51.1834 303.059 51.864 298.648 51.864V53.864C303.261 53.864 307.332 53.1526 310.839 51.6999L310.073 49.8521Z" fill="url(#paint1_radial_9700_49384)" mask="url(#path-1-outside-1_9700_49384)"/>
<defs>
<linearGradient id="paint0_linear_9700_49384" x1="162" y1="-21" x2="162" y2="83.1581" gradientUnits="userSpaceOnUse">
<stop stop-color="#151819"/>
<stop offset="1" stop-color="#0B0F13" stop-opacity="0"/>
</linearGradient>
<radialGradient id="paint1_radial_9700_49384" cx="0" cy="0" r="1" gradientUnits="userSpaceOnUse" gradientTransform="translate(162 -3) rotate(90) scale(87 465.459)">
<stop stop-color="#CBB997"/>
<stop offset="1" stop-color="#005B8E" stop-opacity="0.2"/>
</radialGradient>
</defs>
</svg>
