<svg width="328" height="406" viewBox="0 0 328 406" fill="none" xmlns="http://www.w3.org/2000/svg">
<path d="M13.6734 258.941C14.6223 257.444 16.4297 255.039 17.6497 253.632C18.9149 252.18 19.9993 251 20.0897 251C20.2252 251 20.18 252.497 20.0445 254.313C19.8638 256.082 19.4571 259.531 19.0956 261.89C18.7341 264.25 17.9208 268.062 17.2882 270.285C16.6556 272.554 15.3452 276.003 14.3512 277.999C13.4023 279.996 12.0919 282.219 10.3749 284.352L9.78747 282.31C9.42599 281.04 9.20006 277.954 9.24525 274.142C9.24525 268.425 9.33562 267.79 10.5556 264.84C11.2786 263.116 12.6793 260.438 13.6734 258.941Z" fill="#282B30"/>
<path d="M3.14526 278.68C3.37118 277.546 3.68748 276.32 3.82303 275.957C4.00377 275.413 4.2297 275.504 4.95266 276.411C5.4497 277.046 6.44377 278.771 7.16673 280.268C7.88969 281.766 8.7934 284.534 9.20006 286.394C9.65191 288.572 9.87784 291.522 9.65191 299.281L7.8897 297.693C6.89562 296.831 5.67562 295.424 5.1334 294.562C4.59118 293.7 3.77785 291.839 3.37118 290.478C2.96452 289.026 2.64822 286.439 2.64822 284.352C2.64822 282.356 2.87415 279.814 3.14526 278.68Z" fill="#282B30"/>
<path d="M14.1704 282.764C14.9838 281.403 16.7008 279.315 18.0112 278.09V278.135C19.3215 276.91 20.6771 275.957 20.9934 275.957C21.4452 275.957 21.626 276.593 21.626 278.09C21.626 279.315 21.3097 281.267 20.903 282.537C20.4512 283.762 19.4119 285.94 18.5534 287.302C17.6949 288.663 16.1586 290.66 15.1193 291.749C14.1252 292.838 12.7245 294.017 10.7815 295.016V293.291C10.7815 292.384 11.1882 290.16 11.7304 288.436C12.2727 286.712 13.3571 284.125 14.1704 282.764Z" fill="#282B30"/>
<path d="M14.6223 296.377C15.6164 295.016 17.1526 293.428 18.0112 292.838C18.8697 292.248 19.7282 291.794 19.9541 291.794C20.1349 291.794 20.406 292.339 20.5415 293.065C20.7223 293.745 20.7675 295.515 20.6319 297.012C20.5415 298.691 19.9993 300.733 19.2312 302.367C18.5534 303.774 17.0171 305.906 15.7971 307.086C14.6223 308.311 12.9504 309.673 10.6008 311.079L10.8719 307.222C11.0075 305.089 11.5045 302.367 12.0015 301.096C12.4534 299.871 13.6282 297.738 14.6223 296.377Z" fill="#282B30"/>
<path d="M0.0274839 302.231C-0.0628864 301.096 0.072669 299.009 0.388965 297.602L0.931186 295.016L2.24155 295.651C2.96452 296.014 4.04896 297.012 4.63637 297.829C5.22377 298.601 6.21785 300.325 6.85044 301.55C7.48303 302.821 8.38673 305.271 8.88377 306.995C9.3808 308.72 9.92303 310.852 10.0586 311.669C10.2393 312.486 10.149 313.121 9.87784 313.121C9.65191 313.121 8.4771 312.667 7.30229 312.123C6.08229 311.533 4.41044 310.353 3.55192 309.491C2.69341 308.629 1.56378 307.086 1.11193 306.088C0.61489 305.089 0.163039 303.365 0.0274839 302.231Z" fill="#282B30"/>
<path d="M13.583 315.39C14.306 313.893 15.8423 311.941 17.3334 310.489C18.7793 309.219 20.1349 308.13 20.406 308.13C20.6771 308.13 20.9934 308.901 21.0837 309.809C21.2193 310.762 21.2193 312.531 21.1289 313.802C20.9934 315.027 20.3156 317.387 19.5475 319.02C18.7793 320.654 17.0623 323.15 15.6615 324.692C14.2608 326.19 12.9504 327.233 12.7697 327.052C12.5438 326.825 12.363 324.692 12.363 322.287C12.363 318.43 12.5438 317.568 13.583 315.39Z" fill="#282B30"/>
<path d="M0.886001 316.298C0.886001 314.936 0.976371 313.348 1.11193 312.758C1.29267 312.214 1.56378 311.76 1.7897 311.76C2.01563 311.76 3.28081 312.758 4.59118 313.938C5.90155 315.163 7.66377 317.251 8.52229 318.612C9.3808 319.973 10.6912 322.741 11.3689 324.783C12.0467 326.87 12.5889 328.867 12.5889 329.23C12.5889 329.593 12.3178 329.911 11.9112 329.911C11.5497 329.911 10.4201 329.502 9.42599 329.003C8.43192 328.504 6.6697 327.233 5.54007 326.144C4.32007 325.055 2.91933 323.104 2.15118 321.516C1.2023 319.519 0.840816 318.113 0.886001 316.298Z" fill="#282B30"/>
<path d="M17.7401 328.413C18.2371 326.689 19.0052 325.282 20.1349 324.102L21.7615 322.424L22.846 324.692C23.3882 325.918 24.066 328.096 24.3371 329.457C24.6534 331.091 24.6534 332.86 24.3823 334.675C24.1112 336.173 23.1623 338.941 22.2134 340.801C21.2645 342.662 20.3156 344.159 20.0445 344.159C19.8186 344.114 19.1408 342.889 18.5534 341.437C17.8304 339.621 17.3786 337.489 17.243 334.902C17.0623 332.134 17.1978 330.319 17.7401 328.413Z" fill="#282B30"/>
<path d="M3.326 338.26C2.73859 337.035 2.15118 334.811 2.01563 333.359L1.74452 330.682L3.23563 331C4.04896 331.181 5.81118 331.953 7.16673 332.77C8.52229 333.541 10.8719 335.401 12.4082 336.899C13.8993 338.396 16.1586 341.164 17.4238 343.025C18.6889 344.931 19.9541 346.927 20.2252 347.472C20.7675 348.47 20.7223 348.47 18.3726 348.198C17.1075 348.062 14.803 347.517 13.3119 347.018C11.8208 346.519 9.78747 345.566 8.7934 344.885C7.79932 344.205 6.39859 342.934 5.67562 342.072C4.95266 341.255 3.86822 339.531 3.326 338.26Z" fill="#282B30"/>
<path d="M25.5119 348.062C25.5119 343.252 25.6023 342.616 26.7771 340.166C27.5 338.714 28.3134 337.625 28.5845 337.716C28.9008 337.806 29.8045 339.213 30.6178 340.847C31.4311 342.435 32.2897 344.976 32.5608 346.473C32.8319 347.971 32.9674 350.739 32.8319 352.599C32.6963 354.46 32.2445 357.273 31.7926 358.861C31.2956 360.404 30.8437 361.675 30.7082 361.675C30.5726 361.675 29.8948 360.903 29.1267 359.95C28.4037 359.043 27.2741 357.137 26.6415 355.776C25.6474 353.552 25.5119 352.69 25.5119 348.062Z" fill="#282B30"/>
<path d="M10.8719 356.683C10.3749 355.549 9.96821 353.734 9.96821 352.645C10.0134 350.693 10.0134 350.693 11.4141 351.011C12.2275 351.147 14.0801 351.873 15.5712 352.554C17.0623 353.235 19.2763 354.46 20.5415 355.322C21.7615 356.139 24.4726 358.226 26.506 359.905C28.5845 361.629 30.4823 363.49 31.3408 365.078L27.2741 364.715C25.06 364.488 21.9875 364.034 20.406 363.671C18.8697 363.308 16.8363 362.628 15.8875 362.174C14.9838 361.675 13.6734 360.722 12.9956 359.996C12.3178 359.315 11.3689 357.818 10.8719 356.683Z" fill="#282B30"/>
<path d="M35.6785 359.406C35.6785 357.182 35.9948 355.458 36.6726 353.688L37.7119 351.147L38.9319 352.645C39.5645 353.507 40.7845 355.322 41.5978 356.683C42.4563 358.045 43.4956 360.495 43.9022 362.128C44.3541 363.807 44.7156 366.621 44.7156 368.708C44.7156 370.705 44.4896 373.155 43.7667 375.968L42.1852 374.38C41.2815 373.518 39.9259 371.748 39.0674 370.523C38.2541 369.253 37.1697 366.984 36.6274 365.396C36.04 363.581 35.6785 361.402 35.6785 359.406Z" fill="#282B30"/>
<path d="M48.5563 371.431C48.5111 369.661 48.6919 367.891 48.8726 367.438C49.0533 367.029 49.3696 366.666 49.6407 366.666C49.9119 366.666 50.68 366.938 51.3578 367.301C52.0356 367.664 53.2104 368.617 54.0237 369.48C54.7919 370.296 55.9667 372.066 56.5993 373.337C57.277 374.653 58.0904 377.012 58.4518 378.555C58.8133 380.143 59.1296 382.503 59.1296 383.773C59.1296 385.089 59.0393 386.178 58.9037 386.178C58.8133 386.178 57.5481 385.407 56.1474 384.454C54.7467 383.546 52.9844 382.049 52.2615 381.187C51.5837 380.325 50.4541 378.464 49.7763 377.103C48.8274 375.152 48.5563 373.927 48.5563 371.431Z" fill="#282B30"/>
<path d="M20.1349 370.206C20.3156 370.069 21.0386 369.797 21.626 369.661C22.2586 369.57 24.2015 369.525 25.9186 369.616C27.6808 369.706 30.5274 370.251 32.2445 370.795C34.0067 371.295 36.763 372.429 38.3445 373.291C39.9711 374.108 42.0948 375.515 44.8963 377.92L42.6371 379.009C40.7393 379.871 39.6548 380.052 35.8593 380.052C31.8378 380.052 31.0697 379.916 28.6297 378.782C27.1386 378.056 25.1504 376.831 24.1563 376.059C23.2075 375.242 21.8067 373.7 21.0837 372.565C20.3608 371.431 19.9089 370.387 20.1349 370.206Z" fill="#282B30"/>
<path d="M61.9311 380.279C61.7052 378.918 61.6148 377.466 61.7052 377.012C61.7955 376.377 62.1118 376.377 63.5578 376.74C64.4615 377.012 66.2689 377.874 67.4889 378.646C68.7541 379.463 70.4259 380.915 71.194 381.913C71.9622 382.866 73.137 384.817 73.7244 386.178C74.357 387.54 75.0348 389.763 75.6222 393.439L74.4926 393.166C73.9052 393.03 72.2785 392.35 70.9229 391.714C69.6126 391.034 67.6696 389.763 66.6304 388.856C65.6363 387.948 64.2355 386.224 63.5578 384.999C62.88 383.773 62.157 381.641 61.9311 380.279Z" fill="#282B30"/>
<path d="M35.4074 386.178C35.543 385.906 36.6274 385.407 37.8022 385.044C39.3837 384.545 41.3719 384.409 45.3482 384.545C49.5504 384.681 51.7193 384.999 54.837 385.951C57.0963 386.587 59.5363 387.494 60.2593 387.857C61.6148 388.538 61.6148 388.583 60.7111 389.173C60.2141 389.536 58.723 390.262 57.3222 390.807C55.2889 391.669 53.9333 391.805 49.6407 391.85C44.8059 391.85 44.2637 391.76 41.5074 390.444C39.9259 389.718 37.8022 388.538 36.8985 387.857C35.9497 387.177 35.3171 386.405 35.4074 386.178Z" fill="#282B30"/>
<path d="M79.96 389.582C79.5081 388.583 78.9659 386.995 78.8303 386.042C78.5592 384.545 78.6496 384.363 79.4629 384.363C79.96 384.363 81.7674 384.862 83.4392 385.543C85.1111 386.178 87.1896 387.131 88.0481 387.676C88.9518 388.22 90.4429 389.355 91.3918 390.262C92.3859 391.124 93.6059 392.576 94.1481 393.439C94.6903 394.301 95.3681 395.708 95.6844 396.479C96.1814 397.886 96.1362 397.976 95.1874 397.976C94.5999 397.976 92.8829 397.659 91.3466 397.296C89.7651 396.933 87.5059 396.116 86.2407 395.481C85.0207 394.845 83.2585 393.666 82.4 392.849C81.4963 392.077 80.4118 390.58 79.96 389.582Z" fill="#282B30"/>
<path d="M54.1593 394.845C55.063 394.573 56.9607 394.165 58.4518 393.892C59.943 393.666 63.4222 393.575 66.1333 393.666C68.8896 393.802 72.3237 394.074 73.8148 394.346C75.3059 394.618 76.9326 394.936 77.4296 395.072C78.3333 395.299 78.2881 395.344 77.2037 396.434C76.6163 397.069 74.4474 398.385 72.4592 399.383C70.2 400.472 67.6696 401.334 65.6815 401.607C63.9644 401.879 61.6148 401.97 60.4852 401.833C59.4007 401.652 57.3674 401.244 55.9667 400.835C54.6111 400.472 52.5326 399.61 51.3578 398.975C50.1378 398.294 49.1889 397.613 49.1889 397.386C49.1889 397.205 49.957 396.706 50.9059 396.207C51.8096 395.753 53.3007 395.163 54.1593 394.845Z" fill="#282B30"/>
<path d="M73.634 401.198C74.7185 400.563 77.0681 399.837 78.7851 399.519C80.6829 399.156 84.7044 398.975 88.8162 399.02C92.5666 399.065 95.7748 399.247 95.9555 399.428C96.091 399.655 95.9103 400.381 95.5036 401.153C95.1422 401.879 94.1933 403.013 93.3799 403.603C92.5666 404.193 91.2111 404.874 90.3074 405.146C89.4488 405.418 87.8222 405.781 86.6926 405.917C85.6081 406.099 83.0326 405.963 81.0444 405.69C79.0563 405.373 76.1644 404.692 74.5829 404.148C73.0015 403.603 71.6911 402.968 71.6459 402.741C71.6459 402.469 72.5044 401.788 73.634 401.198Z" fill="#282B30"/>
<path d="M314.327 258.941C313.378 257.444 311.57 255.039 310.35 253.632C309.085 252.18 308.001 251 307.91 251C307.775 251 307.82 252.497 307.956 254.313C308.136 256.082 308.543 259.531 308.904 261.89C309.266 264.25 310.079 268.062 310.712 270.285C311.344 272.554 312.655 276.003 313.649 277.999C314.598 279.996 315.908 282.219 317.625 284.352L318.213 282.31C318.574 281.04 318.8 277.954 318.755 274.142C318.755 268.425 318.664 267.79 317.444 264.84C316.721 263.116 315.321 260.438 314.327 258.941Z" fill="#282B30"/>
<path d="M324.855 278.68C324.629 277.546 324.313 276.32 324.177 275.957C323.996 275.413 323.77 275.504 323.047 276.411C322.55 277.046 321.556 278.771 320.833 280.268C320.11 281.766 319.207 284.534 318.8 286.394C318.348 288.572 318.122 291.522 318.348 299.281L320.11 297.693C321.104 296.831 322.324 295.424 322.867 294.562C323.409 293.7 324.222 291.839 324.629 290.478C325.035 289.026 325.352 286.439 325.352 284.352C325.352 282.356 325.126 279.814 324.855 278.68Z" fill="#282B30"/>
<path d="M313.83 282.764C313.016 281.403 311.299 279.315 309.989 278.09V278.135C308.678 276.91 307.323 275.957 307.007 275.957C306.555 275.957 306.374 276.593 306.374 278.09C306.374 279.315 306.69 281.267 307.097 282.537C307.549 283.762 308.588 285.94 309.447 287.302C310.305 288.663 311.841 290.66 312.881 291.749C313.875 292.838 315.275 294.017 317.218 295.016V293.291C317.218 292.384 316.812 290.16 316.27 288.436C315.727 286.712 314.643 284.125 313.83 282.764Z" fill="#282B30"/>
<path d="M313.378 296.377C312.384 295.016 310.847 293.428 309.989 292.838C309.13 292.248 308.272 291.794 308.046 291.794C307.865 291.794 307.594 292.339 307.458 293.065C307.278 293.745 307.233 295.515 307.368 297.012C307.458 298.691 308.001 300.733 308.769 302.367C309.447 303.774 310.983 305.906 312.203 307.086C313.378 308.311 315.05 309.673 317.399 311.079L317.128 307.222C316.993 305.089 316.495 302.367 315.998 301.096C315.547 299.871 314.372 297.738 313.378 296.377Z" fill="#282B30"/>
<path d="M327.973 302.231C328.063 301.096 327.927 299.009 327.611 297.602L327.069 295.016L325.758 295.651C325.035 296.014 323.951 297.012 323.364 297.829C322.776 298.601 321.782 300.325 321.15 301.55C320.517 302.821 319.613 305.271 319.116 306.995C318.619 308.72 318.077 310.852 317.941 311.669C317.761 312.486 317.851 313.121 318.122 313.121C318.348 313.121 319.523 312.667 320.698 312.123C321.918 311.533 323.59 310.353 324.448 309.491C325.307 308.629 326.436 307.086 326.888 306.088C327.385 305.089 327.837 303.365 327.973 302.231Z" fill="#282B30"/>
<path d="M314.417 315.39C313.694 313.893 312.158 311.941 310.667 310.489C309.221 309.219 307.865 308.13 307.594 308.13C307.323 308.13 307.007 308.901 306.916 309.809C306.781 310.762 306.781 312.531 306.871 313.802C307.007 315.027 307.684 317.387 308.453 319.02C309.221 320.654 310.938 323.15 312.338 324.692C313.739 326.19 315.05 327.233 315.23 327.052C315.456 326.825 315.637 324.692 315.637 322.287C315.637 318.43 315.456 317.568 314.417 315.39Z" fill="#282B30"/>
<path d="M327.114 316.298C327.114 314.936 327.024 313.348 326.888 312.758C326.707 312.214 326.436 311.76 326.21 311.76C325.984 311.76 324.719 312.758 323.409 313.938C322.098 315.163 320.336 317.251 319.478 318.612C318.619 319.973 317.309 322.741 316.631 324.783C315.953 326.87 315.411 328.867 315.411 329.23C315.411 329.593 315.682 329.911 316.089 329.911C316.45 329.911 317.58 329.502 318.574 329.003C319.568 328.504 321.33 327.233 322.46 326.144C323.68 325.055 325.081 323.104 325.849 321.516C326.798 319.519 327.159 318.113 327.114 316.298Z" fill="#282B30"/>
<path d="M310.26 328.413C309.763 326.689 308.995 325.282 307.865 324.102L306.238 322.424L305.154 324.692C304.612 325.918 303.934 328.096 303.663 329.457C303.347 331.091 303.347 332.86 303.618 334.675C303.889 336.173 304.838 338.941 305.787 340.801C306.736 342.662 307.684 344.159 307.956 344.159C308.181 344.114 308.859 342.889 309.447 341.437C310.17 339.621 310.621 337.489 310.757 334.902C310.938 332.134 310.802 330.319 310.26 328.413Z" fill="#282B30"/>
<path d="M324.674 338.26C325.261 337.035 325.849 334.811 325.984 333.359L326.255 330.682L324.764 331C323.951 331.181 322.189 331.953 320.833 332.77C319.478 333.541 317.128 335.401 315.592 336.899C314.101 338.396 311.841 341.164 310.576 343.025C309.311 344.931 308.046 346.927 307.775 347.472C307.233 348.47 307.278 348.47 309.627 348.198C310.893 348.062 313.197 347.517 314.688 347.018C316.179 346.519 318.213 345.566 319.207 344.885C320.201 344.205 321.601 342.934 322.324 342.072C323.047 341.255 324.132 339.531 324.674 338.26Z" fill="#282B30"/>
<path d="M302.488 348.062C302.488 343.252 302.398 342.616 301.223 340.166C300.5 338.714 299.687 337.625 299.416 337.716C299.099 337.806 298.196 339.213 297.382 340.847C296.569 342.435 295.71 344.976 295.439 346.473C295.168 347.971 295.033 350.739 295.168 352.599C295.304 354.46 295.756 357.273 296.207 358.861C296.704 360.404 297.156 361.675 297.292 361.675C297.427 361.675 298.105 360.903 298.873 359.95C299.596 359.043 300.726 357.137 301.358 355.776C302.353 353.552 302.488 352.69 302.488 348.062Z" fill="#282B30"/>
<path d="M317.128 356.683C317.625 355.549 318.032 353.734 318.032 352.645C317.987 350.693 317.987 350.693 316.586 351.011C315.773 351.147 313.92 351.873 312.429 352.554C310.938 353.235 308.724 354.46 307.458 355.322C306.238 356.139 303.527 358.226 301.494 359.905C299.416 361.629 297.518 363.49 296.659 365.078L300.726 364.715C302.94 364.488 306.013 364.034 307.594 363.671C309.13 363.308 311.164 362.628 312.113 362.174C313.016 361.675 314.327 360.722 315.004 359.996C315.682 359.315 316.631 357.818 317.128 356.683Z" fill="#282B30"/>
<path d="M292.321 359.406C292.321 357.182 292.005 355.458 291.327 353.688L290.288 351.147L289.068 352.645C288.436 353.507 287.216 355.322 286.402 356.683C285.544 358.045 284.504 360.495 284.098 362.128C283.646 363.807 283.284 366.621 283.284 368.708C283.284 370.705 283.51 373.155 284.233 375.968L285.815 374.38C286.718 373.518 288.074 371.748 288.933 370.523C289.746 369.253 290.83 366.984 291.373 365.396C291.96 363.581 292.321 361.402 292.321 359.406Z" fill="#282B30"/>
<path d="M279.444 371.431C279.489 369.661 279.308 367.891 279.127 367.438C278.947 367.029 278.63 366.666 278.359 366.666C278.088 366.666 277.32 366.938 276.642 367.301C275.964 367.664 274.79 368.617 273.976 369.48C273.208 370.296 272.033 372.066 271.401 373.337C270.723 374.653 269.91 377.012 269.548 378.555C269.187 380.143 268.87 382.503 268.87 383.773C268.87 385.089 268.961 386.178 269.096 386.178C269.187 386.178 270.452 385.407 271.853 384.454C273.253 383.546 275.016 382.049 275.739 381.187C276.416 380.325 277.546 378.464 278.224 377.103C279.173 375.152 279.444 373.927 279.444 371.431Z" fill="#282B30"/>
<path d="M307.865 370.206C307.684 370.069 306.961 369.797 306.374 369.661C305.741 369.57 303.798 369.525 302.081 369.616C300.319 369.706 297.473 370.251 295.756 370.795C293.993 371.295 291.237 372.429 289.656 373.291C288.029 374.108 285.905 375.515 283.104 377.92L285.363 379.009C287.261 379.871 288.345 380.052 292.141 380.052C296.162 380.052 296.93 379.916 299.37 378.782C300.861 378.056 302.85 376.831 303.844 376.059C304.793 375.242 306.193 373.7 306.916 372.565C307.639 371.431 308.091 370.387 307.865 370.206Z" fill="#282B30"/>
<path d="M266.069 380.279C266.295 378.918 266.385 377.466 266.295 377.012C266.204 376.377 265.888 376.377 264.442 376.74C263.539 377.012 261.731 377.874 260.511 378.646C259.246 379.463 257.574 380.915 256.806 381.913C256.038 382.866 254.863 384.817 254.276 386.178C253.643 387.54 252.965 389.763 252.378 393.439L253.507 393.166C254.095 393.03 255.722 392.35 257.077 391.714C258.387 391.034 260.33 389.763 261.37 388.856C262.364 387.948 263.764 386.224 264.442 384.999C265.12 383.773 265.843 381.641 266.069 380.279Z" fill="#282B30"/>
<path d="M292.593 386.178C292.457 385.906 291.373 385.407 290.198 385.044C288.616 384.545 286.628 384.409 282.652 384.545C278.45 384.681 276.281 384.999 273.163 385.951C270.904 386.587 268.464 387.494 267.741 387.857C266.385 388.538 266.385 388.583 267.289 389.173C267.786 389.536 269.277 390.262 270.678 390.807C272.711 391.669 274.067 391.805 278.359 391.85C283.194 391.85 283.736 391.76 286.493 390.444C288.074 389.718 290.198 388.538 291.101 387.857C292.05 387.177 292.683 386.405 292.593 386.178Z" fill="#282B30"/>
<path d="M248.04 389.582C248.492 388.583 249.034 386.995 249.17 386.042C249.441 384.545 249.35 384.363 248.537 384.363C248.04 384.363 246.233 384.862 244.561 385.543C242.889 386.178 240.81 387.131 239.952 387.676C239.048 388.22 237.557 389.355 236.608 390.262C235.614 391.124 234.394 392.576 233.852 393.439C233.31 394.301 232.632 395.708 232.316 396.479C231.819 397.886 231.864 397.976 232.813 397.976C233.4 397.976 235.117 397.659 236.653 397.296C238.235 396.933 240.494 396.116 241.759 395.481C242.979 394.845 244.742 393.666 245.6 392.849C246.504 392.077 247.588 390.58 248.04 389.582Z" fill="#282B30"/>
<path d="M273.841 394.845C272.937 394.573 271.039 394.165 269.548 393.892C268.057 393.666 264.578 393.575 261.867 393.666C259.11 393.802 255.676 394.074 254.185 394.346C252.694 394.618 251.067 394.936 250.57 395.072C249.667 395.299 249.712 395.344 250.796 396.434C251.384 397.069 253.553 398.385 255.541 399.383C257.8 400.472 260.33 401.334 262.319 401.607C264.036 401.879 266.385 401.97 267.515 401.833C268.599 401.652 270.633 401.244 272.033 400.835C273.389 400.472 275.467 399.61 276.642 398.975C277.862 398.294 278.811 397.613 278.811 397.386C278.811 397.205 278.043 396.706 277.094 396.207C276.19 395.753 274.699 395.163 273.841 394.845Z" fill="#282B30"/>
<path d="M254.366 401.198C253.282 400.563 250.932 399.837 249.215 399.519C247.317 399.156 243.296 398.975 239.184 399.02C235.433 399.065 232.225 399.247 232.045 399.428C231.909 399.655 232.09 400.381 232.496 401.153C232.858 401.879 233.807 403.013 234.62 403.603C235.433 404.193 236.789 404.874 237.693 405.146C238.551 405.418 240.178 405.781 241.307 405.917C242.392 406.099 244.967 405.963 246.956 405.69C248.944 405.373 251.836 404.692 253.417 404.148C254.999 403.603 256.309 402.968 256.354 402.741C256.354 402.469 255.496 401.788 254.366 401.198Z" fill="#282B30"/>
</svg>
